<?xml version="1.0" encoding="utf-8"?>
<!-- Generator: Adobe Illustrator 19.2.0, SVG Export Plug-In . SVG Version: 6.00 Build 0)  -->
<svg version="1.1" id="Lion" xmlns="http://www.w3.org/2000/svg" xmlns:xlink="http://www.w3.org/1999/xlink" x="0px" y="0px"
	 viewBox="0 0 512 512" style="enable-background:new 0 0 512 512;" xml:space="preserve">
<style type="text/css">
	.st0{fill:#906B51;}
	.st1{fill:#EBC368;}
	.st2{fill:#FEFEFE;}
	.st3{fill:#3E4347;}
</style>
<path id="Mane" class="st0" d="M252.4,492.1c-2.8-2.5-10.2-7.7-16.5-11.6c-13.9-8.5-22-16.2-25.8-24.5l-2.7-6.1l-3.3,5
	c-8,12.4-27.3,24.5-45.3,28.5c-2.7,0.6-2.8,0.5-2.8-3.7c0-6.6-2.3-14.1-8.3-26.7c-3-6.3-6.2-14-7.1-17c-2.5-8.2-4.6-22.5-4.6-31
	l-0.1-7.5l-1.9,5.4c-3.1,8.5-7.9,15.8-14.9,22.3c-5.6,5.3-16.5,11.8-19.6,11.8c-0.6,0-1.6-2.6-2.3-5.8c-0.7-3.2-4.7-12.8-9.2-21.9
	c-10.4-21-13-29.9-13.7-46.5c-0.3-7.1-0.7-12.8-0.8-12.8s-2.2,0.8-4.6,1.7c-7.2,2.7-42.7,1.9-45.7-1.1c-0.2-0.3,0.9-2.4,2.6-4.8
	c7.4-10.8,9.9-19,13.7-45.3c3.8-26.4,8.3-38.5,18.2-49.5c4.5-5,4.5-5.1,1.7-4.4c-12.4,2.9-26,9.5-33.4,16.1
	c-2.6,2.3-5.1,4.3-5.5,4.3c-1.4,0,0.3-38.2,2-46c3.8-17,10.4-32.4,19.2-44.7c2.9-4,4.8-7.3,4.4-7.3c-2.2,0-16.5-14.9-20.5-21.3
	c-4.9-7.9-9.6-20.6-9.6-26c0-3.4,0.2-3.6,4.3-4.2c9.7-1.6,16.2-6.2,23.2-16.3c3.3-4.9,5.2-9.1,6.6-14.8
	c4.8-18.5,13.4-30.9,23.8-34.1c3.1-1,7.9-3.4,10.6-5.5c6.3-4.7,16.1-9.2,24.5-11.4c10-2.7,28-2.3,39.5,0.8c5,1.4,9.7,2.8,10.6,3.2
	c1.3,0.6,1.7-0.7,2.5-8.6c0.6-5.1,0.7-10.5,0.3-12l-0.8-2.8h9.7c28.5,0.1,63.3,10.3,80.9,23.7L256,43l4.3-3.3
	c17.6-13.4,52.4-23.6,81-23.7c9.7,0,9.8,0,8.6,2.2c-0.9,1.7-0.9,4.1,0.1,10.5c0.7,4.6,1,9,0.6,9.8c-0.7,1.9,0.1,1.9,5.5-0.1
	c12.3-4.4,32.2-5.7,45.4-2.9c7.8,1.7,19.5,6.9,26.4,11.8c2.5,1.8,7.1,4.1,10.2,5c10.2,3.1,17.5,13.2,22.6,30.9
	c5.3,18.9,17.1,31.7,31.6,34.3c3.4,0.7,3.7,1,3.7,4.2c0,5.4-4.7,18.1-9.6,26c-4.1,6.6-18.3,21.3-20.6,21.3c-0.5,0,1.1,2.6,3.5,5.7
	c16.3,21,26.6,54.8,25.5,84.2l-0.3,8.3l-5-4.1c-7.5-6.2-23.5-14-33.6-16.5c-2.5-0.5-2.3-0.2,1.8,4.2c5.4,5.7,12.5,20.2,14.7,29.7
	c0.9,3.9,2.7,14.7,4.1,24.1s3.2,19.5,4.1,22.5c1.9,6.3,6.7,16.1,10.1,20.5l2.4,3.2l-6.3,1.1c-11.5,2.1-27.6,2.4-35.3,0.8
	c-3.8-0.8-7.7-1.8-8.6-2.2c-1.4-0.5-1.7,1-2.2,12.7c-0.7,17.1-2.5,23.4-13.2,45.8c-4.7,9.6-9,19.9-9.6,22.8
	c-0.6,2.8-1.5,5.2-2.1,5.2c-0.5,0-3.3-1.1-6.1-2.6c-12.1-6.1-20.3-14.4-26.2-26.6c-3.6-7.4-4.5-7-4.5,2.3c0,12.6-4.4,28.3-12.8,45.9
	c-5,10.5-7.2,18-7.2,24.6c0,3.2-0.2,3.4-2.7,2.8c-7.3-1.7-19.3-6.8-25.7-10.8c-7.4-4.7-16.6-13.4-20.9-19.9l-2.5-3.7l-0.7,2.9
	c-1,4.6-7.7,14.3-12.6,18.3c-2.4,2-9.7,7-16.2,11.2c-6.5,4.2-13.7,9.4-16,11.5l-4.2,3.9L252.4,492.1z"/>
<g id="Face">
	<g>
		<g>
			<g>
				<path class="st1" d="M253,434c-1.7-2.7-4.4-7.8-5.9-11.5c-1.5-3.6-3-6.8-3.4-7.1c-1-1-4.7,7.4-5.4,12.3
					c-0.6,4.5-0.7,4.6-2.3,2.6c-1.3-1.6-5.8-14-7.7-21.2c-0.7-2.9-1.6,0.1-2.2,7.9l-0.6,8l-9-6.7c-17.7-13.1-34.5-32.1-43.2-48.8
					c-7.9-15.3-10.5-28.6-10.8-55c-0.2-17.1-0.6-19.5-4.6-28.4c-3.6-7.9-8.4-15-20.9-30.7c-11.5-14.4-14.5-19.2-15.9-25.6
					c-3.6-15.7,11.7-54.9,25.2-64.9c2.5-1.8,4.3-2.2,8.8-2.1l5.8,0.2l4.6-9.4c11.5-23.1,27.9-38.7,47-44.6c14.8-4.6,27-2.1,37.6,7.7
					l5.9,5.5l5-4.6c25.2-23.6,64-6.2,86.6,38.6l3.4,6.8l5.9-0.2c5-0.1,6.5,0.3,9.4,2.5c10.1,7.7,22,32.3,24.9,51.6
					c2,13.4-0.5,19.3-17.2,40.6c-19.7,25.2-22.6,32.3-23.9,57.3c-0.5,9.2-1.2,17.5-1.6,18.5s-0.3,1.7,0.4,1.7c0.6,0,1.1,0.9,1.1,2
					c0,4.2-3.3,17.7-5.9,24.6c-6.6,16.9-25.8,40.3-46.1,56l-9.5,7.4l-0.7-6.4c-1.1-11.2-1.8-12-3.9-4.4c-1,3.6-3,9.2-4.5,12.5
					l-2.6,5.8l-1.7-6.7c-1-3.7-2.6-7.7-3.6-8.8c-1.8-2-1.9-2-4.7,4.6c-3.1,7.2-8.9,17.4-9.9,17.4C256.5,439,254.8,436.8,253,434z"/>
			</g>
		</g>
	</g>
</g>
<g id="OuterEars">
	<path id="RightOuterEar" class="st1" d="M422.1,167.4c-2.8-5.8-5.1-10.7-5.1-10.8c0-0.2,2.2-1.7,4.9-3.4
		c10.4-6.4,16.1-18.6,16.1-34.2c0-14.4-5-26.9-12.3-30.7c-10-5.2-37.1,2.1-48.8,13.3c-1.4,1.3-2.8,2.4-3.1,2.4c-0.3,0-3-1.6-5.9-3.6
		c-3-2-10.1-5.9-15.7-8.7l-10.4-4.9l4.9-5c12.7-12.9,35.8-24.6,58-29.4c10.5-2.2,27.3-2.2,34,0c9.5,3.1,17,13.6,21.6,29.8
		c2.8,9.9,3.2,14,3.1,31.8c-0.1,11.5-0.5,14.8-2.8,22.5c-3.8,12.7-8.9,21.7-16.6,29.4c-5.3,5.4-14.3,12.1-16.3,12.1
		C427.5,178,425,173.2,422.1,167.4z"/>
	<path id="LeftOuterEar" class="st1" d="M77.2,174c-15.2-10.2-24.9-26.4-28.3-47.5c-1.5-9.7-0.6-32.8,1.6-41.6
		c4.3-16.5,13.3-29.3,22.8-32.5c6.7-2.2,23.5-2.2,34,0c22.2,4.8,45.3,16.5,58.1,29.4l4.8,5l-9.7,4.6c-5.3,2.5-12.4,6.5-15.9,8.9
		l-6.2,4.4l-4-3.4c-13.3-11.5-38.2-18.3-48.1-13C79,92.2,74,104.6,74,119c0,15.8,5.9,28.1,16.6,34.5l5.1,3.1L90.3,167
		c-2.9,5.8-5.7,10.6-6.1,10.8C83.7,177.9,80.6,176.2,77.2,174z"/>
</g>
<g id="BeardAndHeadMark">
	<path id="Beard" class="st2" d="M253,434c-1.7-2.7-4.4-7.8-5.9-11.5c-1.5-3.6-3-6.8-3.4-7.1c-1-1-4.7,7.4-5.4,12.3
		c-0.6,4.5-0.7,4.6-2.3,2.6c-1.3-1.6-5.8-14-7.7-21.2c-0.7-2.9-1.6,0.1-2.2,7.9l-0.6,8l-9-6.7c-18.5-13.7-35.3-33.1-44-50.6
		c-5-10.2-8.8-23.6-8.3-29.4l0.3-3.8l4.9,6.8c10.8,15.3,24.1,26.6,36.3,30.9c4.5,1.6,7.7,1.9,14.8,1.6c7.9-0.3,9.9-0.7,16.5-3.9
		c4.1-2,10.3-5.9,13.7-8.8l6.3-5.3l5.7,5.2c3.2,2.8,9.2,6.8,13.2,8.8c7.2,3.6,7.9,3.7,18.1,3.7c10.5,0,10.8-0.1,19.2-4.2
		c10.2-5.1,20.4-14.2,29.3-26.1c3.3-4.5,6.3-8.1,6.8-8.2c2-0.1-1.2,16.3-5.2,26.6c-6.6,16.9-25.8,40.3-46.1,56l-9.5,7.4l-0.7-6.4
		c-1.1-11.2-1.8-12-3.9-4.4c-1,3.6-3,9.2-4.5,12.5l-2.6,5.8l-1.7-6.7c-1-3.7-2.6-7.7-3.6-8.8c-1.8-2-1.9-2-4.7,4.6
		c-3.1,7.2-8.9,17.4-9.9,17.4C256.5,439,254.8,436.8,253,434z"/>
	<path id="Mark" class="st2" d="M250.6,183l-5-31l4.9-10c2.7-5.5,5.2-10,5.5-10c0.3,0,2.8,4.5,5.5,10l4.9,10l-5,31
		c-2.7,17-5.1,31-5.4,31C255.7,214,253.3,200,250.6,183z"/>
</g>
<g id="Eyes">
	<g id="LeftEye">
		<g>
			<g>
				<g>
					<path class="st3" d="M198.5,228.6c-3,2.2-5,2.9-9.9,3.2c-5.6,0.3-6.5,0.1-10.4-2.8c-9.5-6.9-12.5-21.7-6.8-33.3
						c3.8-7.9,8.2-11,16-11.5c5.6-0.3,6.5-0.1,10.4,2.8C210.3,196.1,210.7,219.3,198.5,228.6z"/>
				</g>
			</g>
		</g>
	</g>
	<g id="RightEye">
		<g>
			<g>
				<g>
					<path class="st3" d="M334.5,228.6c8.8-6.8,11.6-21.7,6.1-32.9c-3.8-7.9-8.2-11-16-11.5c-5.6-0.3-6.5-0.1-10.4,2.8
						c-12.9,9.3-12.9,32.7,0,42c3.9,2.9,4.8,3.1,10.4,2.8C329.5,231.5,331.5,230.8,334.5,228.6z"/>
				</g>
			</g>
		</g>
	</g>
</g>
<g id="InnerEars">
	<path id="LeftInnerEar" class="st3" d="M101.9,146c7.9-12.7,15.6-22.3,26.6-33l8.7-8.5l-4.3-3.7c-11.5-9.9-32.4-16-44-12.8
		c-13,3.6-19.1,31.4-11,50.3c3,6.9,12.2,16,17.8,17.7C95.7,156,98.6,151.5,101.9,146z"/>
	<path id="RightInnerEar" class="st3" d="M427.8,147.6c8-8.7,11.5-22.3,9.4-36.2c-2-12.6-6.2-20.2-12.9-23c-10.2-4.4-36.5,3-46.2,13
		l-3.2,3.3l7.7,7.4c11.7,11.3,20.8,23.1,31.8,41.2l1.7,2.7l3.7-1.9C421.9,153,425.5,150.1,427.8,147.6z"/>
</g>
<g id="Nose">
	<g>
		<path class="st0" d="M346.6,337.3c-0.2-0.2-3.4,1.9-7.1,4.7c-22.7,17.2-46.1,19.7-65.1,7.1c-11.6-7.8-10.5-4.3-10.2-31.1l0.3-23.4
			l15.9-6.7c8.7-3.8,16.9-7.8,18.2-9c3.6-3.3,4.5-6.9,4.2-16l-0.3-8.4l-7.4-3.7c-4.1-2-10.2-4.3-13.6-5.2
			c-22.2-5.6-46.8-3.6-64.6,5.2l-7.4,3.7l-0.3,8.4c-0.3,9.1,0.6,12.7,4.2,16c1.3,1.2,9.5,5.2,18.2,9l15.9,6.7l0.2,22.1l0.2,24.8
			l-4.7,3.6c-10.8,8.3-23.9,12.6-35,11.5c-11.9-1.2-26-7.7-37-16.9c-5.2-4.4-6-4.6-3.7-0.9c6.9,10.7,17.8,21.8,27.1,27.8
			c9.4,6,14.5,7.5,25.4,7.2c8.6-0.3,10.2-0.7,17-3.9c4.1-2,10.3-5.9,13.7-8.8l6.3-5.3l5.7,5.2c3.2,2.8,9.2,6.8,13.2,8.8
			c7.2,3.6,7.9,3.7,18.1,3.7c10.5,0,10.8-0.1,19.1-4.2c4.9-2.4,11.1-6.6,14.8-10C334,353.8,347.4,338,346.6,337.3z"/>
	</g>
</g>
<g id="Mouth">
	<g>
		<path class="st3" d="M342.2,340.2c-4.6,4.4-15.8,11.1-23.1,13.9c-15.5,5.8-31.5,4.2-45.1-4.8c-10.9-7.1-10-4.3-10-31.3v-23.7
			l15.3-6.3c8.3-3.5,16.4-7.2,17.8-8.2c4.2-2.8,5.9-7.6,5.9-16.7v-8.2l-3.2,1.7c-10.1,5.1-17.9,12.1-27.4,24.6
			C264.1,292,260.6,295,256,295s-8.2-3-16.5-14c-4.1-5.5-9.5-11.6-12-13.7c-4.7-3.9-16.2-11.3-17.7-11.3s-0.9,15,0.8,18.6
			c2.2,4.7,4.5,6,22.2,13.4l15.2,6.3v23.8v23.8l-3.7,3.1c-2.1,1.7-7.5,4.9-12,7.1c-10.1,5-20.6,6.1-31.7,3.5
			c-8.7-2.1-22.8-9.4-29.7-15.5c-4.5-3.9-5-4.1-3.4-1.6c6.9,10.9,17.6,22,27.1,28.1c9.4,6,14.5,7.5,25.4,7.2
			c8.6-0.3,10.2-0.7,17-3.9c4.1-2,10.3-5.9,13.7-8.8l6.3-5.3l5.7,5.2c3.2,2.8,9.2,6.8,13.2,8.8c7.2,3.6,7.9,3.7,18.1,3.7
			c10.5,0,10.8-0.1,19.1-4.2c9.8-4.9,18.6-12.4,27.6-23.7C347.5,337,348.2,334.5,342.2,340.2z"/>
	</g>
</g>
</svg>
